# xmcd
#
# Track frame offsets: 
#        150
#        11866
#        23207
#        36354
#        50598
#        63357
#        75590
#        86656
#        96475
#        104509
#        117167
#        127138
#        140224
#        152200
#        162961
#
# Disc length: 2329 seconds
#
# Revision: 3
# Processed by: cddbd v1.5.2PL0 Copyright (c) Steve Scherf et al.
# Submitted via: ExactAudioCopy v1.0b3
#
DISCID=d609170f
DTITLE=Various Artist - Mojo Presents The Roots Of Fleetwood Mac
DYEAR=2015
DGENRE=Blues
TTITLE0=King, Freddie - San Ho Zay
TTITLE1=James, Elmore - Shake Your Moneymaker
TTITLE2=Brown, Buster - Doctor Brown
TTITLE3=Rush, Otis - So Many Roads
TTITLE4=Howlin' Wolf - No Place To Go
TTITLE5=Little Walter - Last Night
TTITLE6=Fabian - Tiger
TTITLE7=Kane, Eden - Well I Ask You
TTITLE8=Holly, Buddy - Rave On
TTITLE9=Kingston Trio, The - Greenback Dollar
TTITLE10=John, Little Willie - Need Your Love So Bad
TTITLE11=Rogers, Jimmy With His Rocking Four - The World Is In A Tangl
TTITLE11=e
TTITLE12=Boyd, Eddie - Five Long Years
TTITLE13=James, Elmore - Coming Home
TTITLE14=Johnson, Robert - Hellhound On My Trail
EXTD=
EXTT0=
EXTT1=
EXTT2=
EXTT3=
EXTT4=
EXTT5=
EXTT6=
EXTT7=
EXTT8=
EXTT9=
EXTT10=
EXTT11=
EXTT12=
EXTT13=
EXTT14=
PLAYORDER=
